<svg xmlns="http://www.w3.org/2000/svg" width="24" height="24">
    <path d="M0 0h24v24H0V0z" fill="none"/>
    <circle fill="#CCD6DD" cx="12" cy="12" r="11"/>
    <path fill="#657786" d="M20.84 18.578a10.88 10.88 0 01-3.325 2.957c-.009-.043-.026-.086-.034-.129a7.843 7.843 0 00-3.505-4.902.716.716 0 01.129-.017c.146-.026.317-.051.471-.06.009-.009.034-.009.043-.009h.009a2.22 2.22 0 01.334-.026 5.782 5.782 0 011.097 0c.12 0 .231.009.334.026h.009c.026 0 .043 0 .051.009.128.009.257.034.386.051.154.017.3.051.454.077.111.017.223.051.343.086.086.026.171.051.274.086.163.043.326.094.471.154.437.18.848.386 1.234.626.163.111.309.206.446.326.086.069.171.137.257.214.154.137.3.274.437.437.034.025.06.059.085.094zm-2.284-4.585c-.55.629-1.336.864-2.131.953a9.77 9.77 0 01-.913.039c-.295 0-.609-.01-.913-.039-.442-.049-.864-.137-1.257-.324.904-1.149 1.198-2.75.913-4.881a7.098 7.098 0 00-.678-2.279c.55-.344 1.198-.521 1.935-.521 2.004 0 3.379 1.336 3.683 3.575.215 1.601-.001 2.74-.639 3.477zm-6.483-.148c-.854.992-2.21 1.12-3.418 1.12s-2.554-.128-3.418-1.12c-.726-.825-.952-2.102-.717-3.909.344-2.514 1.886-4.017 4.135-4.017 2.259 0 3.801 1.503 4.135 4.017.246 1.807.01 3.084-.717 3.909zm4.036 8.367a10.819 10.819 0 01-4.088.788 10.954 10.954 0 01-8.862-4.491c1.388-1.286 3.342-1.98 5.493-1.98 3.574 0 6.608 1.92 7.396 5.219.036.155.061.309.061.464z"/>
</svg>
