<svg width="63" height="27" viewBox="0 0 278 97" fill="none" xmlns="http://www.w3.org/2000/svg">
<path d="M132.469 27.3564V34.7231H128.599V62.2431H132.469V69.6084H114.309V62.2431H118.179V34.7231H114.309V27.3564H132.469Z" fill="#101828"/>
<path d="M172.275 68.1057C168.899 69.599 164.49 70.3457 159.05 70.3457C151.954 70.3457 146.372 68.4404 142.307 64.6297C138.244 60.819 136.211 55.7404 136.211 49.3964C136.211 42.639 138.496 37.159 143.067 32.955C147.636 28.751 153.566 26.6497 160.856 26.6497C165.371 26.6497 169.179 27.1697 172.275 28.211V37.375C169.179 35.6857 165.651 34.8404 161.694 34.8404C157.351 34.8404 153.846 36.0884 151.179 38.5817C148.512 41.0777 147.179 44.4564 147.179 48.7177C147.179 52.8044 148.436 56.0604 150.954 58.4857C153.47 60.911 156.856 62.1244 161.114 62.1244C165.179 62.1244 168.899 61.2204 172.275 59.4137V68.1057Z" fill="#101828"/>
<path d="M233.043 69.6084H222.753V44.3284C222.753 41.5977 222.883 38.5817 223.14 35.2831H222.883C222.345 37.8751 221.86 39.7417 221.431 40.8804L210.592 69.6084H202.076L191.045 41.1751C190.743 40.4097 190.259 38.4457 189.593 35.2831H189.303C189.581 39.4471 189.723 43.1004 189.723 46.2431V69.6084H180.336V27.3564H195.593L205.044 52.4017C205.796 54.4044 206.345 56.4177 206.689 58.4417H206.883C207.463 56.1044 208.076 54.0711 208.721 52.3417L218.173 27.3564H233.043V69.6084Z" fill="#101828"/>
<path d="M271.109 69.6084H243.562V27.3564H253.981V61.8884H271.109V69.6084Z" fill="#101828"/>
<path d="M29.1275 42.9266C29.1275 43.8359 28.3901 44.5732 27.4808 44.5732H16.2808C15.3715 44.5732 14.6328 43.8359 14.6328 42.9266V31.7266C14.6328 30.8159 15.3715 30.0786 16.2808 30.0786H27.4808C28.3901 30.0786 29.1275 30.8159 29.1275 31.7266V42.9266Z" fill="#101828"/>
<path d="M43.0598 28.4315C43.0598 29.3408 42.3212 30.0781 41.4132 30.0781H31.9332C31.0238 30.0781 30.2852 29.3408 30.2852 28.4315V18.9515C30.2852 18.0421 31.0238 17.3048 31.9332 17.3048H41.4132C42.3212 17.3048 43.0598 18.0421 43.0598 18.9515V28.4315Z" fill="#101828"/>
<path d="M26.5852 20.1385C26.5852 21.0492 25.8479 21.7852 24.9399 21.7852H18.3746C17.4652 21.7852 16.7266 21.0492 16.7266 20.1385V13.5745C16.7266 12.6652 17.4652 11.9265 18.3746 11.9265H24.9399C25.8479 11.9265 26.5852 12.6652 26.5852 13.5745V20.1385Z" fill="#101828"/>
<path d="M12.7864 28.0262C12.7864 28.9355 12.0478 29.6729 11.1384 29.6729H6.54644C5.6371 29.6729 4.89844 28.9355 4.89844 28.0262V23.4342C4.89844 22.5235 5.6371 21.7862 6.54644 21.7862H11.1384C12.0478 21.7862 12.7864 22.5235 12.7864 23.4342V28.0262Z" fill="#101828"/>
<path d="M75.7632 23.7127C75.7632 24.6221 75.0245 25.3594 74.1165 25.3594H72.2339C71.3245 25.3594 70.5859 24.6221 70.5859 23.7127V21.8301C70.5859 20.9207 71.3245 20.1847 72.2339 20.1847H74.1165C75.0245 20.1847 75.7632 20.9207 75.7632 21.8301V23.7127ZM73.7912 37.3927C73.7912 38.3021 73.0539 39.0394 72.1432 39.0394H66.0725C65.1632 39.0394 64.4245 38.3021 64.4245 37.3927V31.3207C64.4245 30.4101 65.1632 29.6727 66.0725 29.6727H72.1432C73.0539 29.6727 73.7912 30.4101 73.7912 31.3207V37.3927ZM62.3299 51.5647C62.3299 52.4727 61.5912 53.2114 60.6819 53.2114H49.8032C48.8952 53.2114 48.1579 52.4727 48.1579 51.5647V40.6861C48.1579 39.7767 48.8952 39.0394 49.8032 39.0394H60.6819C61.5912 39.0394 62.3299 39.7767 62.3299 40.6861V51.5647ZM59.6192 14.5607C59.6192 13.6501 60.3552 12.9127 61.2645 12.9127H65.2419C66.1512 12.9127 66.8899 13.6501 66.8899 14.5607V18.5367C66.8899 19.4461 66.1512 20.1847 65.2419 20.1847H61.2645C60.3552 20.1847 59.6192 19.4461 59.6192 18.5367V14.5607ZM89.6912 41.6101C88.6619 42.1261 88.4032 42.3834 88.4032 40.9661V32.5994C88.4032 30.6634 89.1339 4.66475 59.1819 4.66475C51.0632 4.66475 43.6512 6.72475 43.6512 8.65675C43.6512 10.5874 43.6072 13.2901 43.6072 14.8354C43.6072 16.4941 44.5072 17.3047 45.7952 17.3047H53.2619C54.1645 17.3047 55.5779 17.3994 55.5779 18.9914V27.3221C55.5779 29.5101 54.4992 29.7994 53.3405 29.7994H45.6179C44.4592 29.7994 43.3485 30.4114 43.3485 31.8274V39.6581C43.3485 40.7967 42.8352 41.7394 41.1619 41.7394H33.4112C32.3819 41.7394 31.2699 43.0247 31.2699 44.9554C31.2699 46.8861 31.2485 50.8794 31.2485 52.0381C31.2485 53.1967 30.2192 53.0674 27.6445 53.0674C27.6445 53.0674 27.6445 56.7994 29.3179 61.0487C30.2125 63.3207 31.6352 63.8794 34.0805 63.1074C34.0805 63.1074 34.3765 69.2661 35.7925 73.1274C37.2085 76.9887 38.4579 79.4581 42.4485 82.2887C46.4405 85.1221 46.8259 85.8941 49.5285 88.0821C52.2312 90.2714 53.3899 92.3301 60.2139 92.3301C67.1645 92.3301 68.8379 89.6274 71.6699 86.7954C74.5019 83.9621 77.7499 83.8527 81.7099 77.9114C85.0579 72.8914 85.2392 68.8287 85.7005 62.9781C85.7005 62.9781 89.3059 64.7807 90.4645 61.1767C91.1739 58.9674 93.2952 49.0767 94.0685 43.7994C94.8405 38.5207 90.7219 41.0954 89.6912 41.6101Z" fill="#101828"/>
</svg>
