<?xml version="1.0" encoding="UTF-8"?>
<svg id="Layer_1" data-name="Layer 1" xmlns="http://www.w3.org/2000/svg" viewBox="0 0 403 257" width="63" height="27">
  <defs>
  </defs>
  <g>
    <path class="cls-1" d="m310.36,4.6h11.65l18.78,49.01h-12.27l-3.84-10.35h-17l-3.84,10.35h-12.2l18.71-49.01Zm11.1,28.65l-5.28-15.08-5.21,15.08h10.49Z"/>
    <path class="cls-1" d="m310.36,86.89h11.65l18.78,49.01h-12.27l-3.84-10.35h-17l-3.84,10.35h-12.2l18.71-49.01Zm11.1,28.65l-5.28-15.08-5.21,15.08h10.49Z"/>
    <path class="cls-1" d="m310.36,169.19h11.65l18.78,49.01h-12.27l-3.84-10.35h-17l-3.84,10.35h-12.2l18.71-49.01Zm11.1,28.65l-5.28-15.08-5.21,15.08h10.49Z"/>
    
    <path class="cls-1" d="m351.06,169.26h12.06v48.94h-12.06v-48.94Z"/>
  </g>
  <g>
    <path class="cls-2" d="m133.88,27.19l-9.72-17.64c-2.32-4.22-8.39-4.22-10.71,0L3.43,209.16c-2.25,4.08.7,9.07,5.36,9.07h19.8L133.88,27.19Z"/>
    <polygon class="cls-3" points="157.93 70.82 142.85 43.47 46.53 218.23 76.68 218.23 157.93 70.82"/>
    <path class="cls-1" d="m148.87,187.51h36.07v30.72h43.89c4.65,0,7.6-4.99,5.36-9.07l-67.28-122.06-72.28,131.13h54.24v-30.72Zm18.04-46.98c9.76,0,17.66,7.91,17.66,17.66s-7.91,17.66-17.66,17.66-17.66-7.91-17.66-17.66,7.91-17.66,17.66-17.66Z"/>
  </g>
</svg>