<svg xmlns="http://www.w3.org/2000/svg" width="25%" version="1.1" viewBox="32.18 28.49 272.44 194.92"><path d="M 69.101 28.750 C 67.232 28.969, 64.757 29.747, 63.601 30.478 C 62.446 31.210, 59.477 32.134, 57.004 32.533 C 54.531 32.932, 49.618 34.766, 46.085 36.608 C 42.553 38.449, 38.179 40.446, 36.364 41.045 C 33.678 41.931, 32.940 42.800, 32.392 45.727 C 31.920 48.242, 32.219 50.251, 33.390 52.426 C 34.964 55.348, 42.523 61.278, 47.508 63.500 C 49.955 64.591, 56 69.528, 56 70.435 C 56 70.746, 55.403 71, 54.674 71 C 52.782 71, 49 75.295, 49 77.444 C 49 79.406, 57.748 89, 59.537 89 C 60.136 89, 61.804 90.237, 63.243 91.750 C 65.645 94.273, 65.746 94.706, 64.466 97 C 63.699 98.375, 63.055 100.307, 63.035 101.293 C 62.971 104.574, 71.875 112.817, 79.395 116.439 C 88.607 120.876, 93.405 122.072, 103.901 122.549 C 113.519 122.986, 121.396 121.550, 130.334 117.731 C 137.068 114.853, 138.859 115.301, 145.439 121.507 C 147.476 123.428, 149.461 125, 149.850 125 C 150.240 125, 152.227 126.621, 154.268 128.603 L 157.977 132.206 151.428 135.500 L 144.880 138.795 136.690 135.148 C 128.759 131.615, 128.142 131.503, 117.196 131.604 C 110.166 131.668, 105.459 132.141, 104.746 132.854 C 104.116 133.484, 102.543 134, 101.250 134 C 98.827 134, 93 136.583, 93 137.658 C 93 139.325, 97.516 145.232, 100.321 147.232 C 103.245 149.318, 104.503 149.490, 116 149.378 C 126.146 149.279, 129.528 148.857, 133.960 147.138 L 139.420 145.019 143.014 147.509 C 144.990 148.879, 147.062 150, 147.617 150 C 148.172 150, 149.904 151.334, 151.466 152.964 C 153.028 154.595, 154.623 155.733, 155.011 155.493 C 155.399 155.254, 156.531 156.571, 157.527 158.421 L 159.339 161.784 156.103 165.870 C 154.324 168.116, 151.512 173.841, 149.856 178.591 C 147.380 185.690, 146.959 188.142, 147.489 192.364 C 149.500 208.380, 155.751 219.553, 164.354 222.511 C 170.370 224.579, 173.034 223.276, 176.730 216.458 C 178.507 213.181, 180.227 209.825, 180.553 209 C 180.879 208.175, 181.564 206.718, 182.074 205.762 C 182.585 204.806, 183.521 200.981, 184.154 197.262 C 186.336 184.451, 181.447 170.037, 172.106 161.742 C 169.128 159.098, 168.171 155.714, 169.765 153.462 C 170.169 152.892, 173.034 151.117, 176.130 149.518 C 181.541 146.724, 181.930 146.666, 186.130 148.015 C 188.534 148.787, 191.175 149.439, 192 149.462 C 192.825 149.486, 196.641 151.079, 200.479 153.003 C 206.990 156.265, 208.096 156.500, 216.979 156.500 C 226.213 156.500, 233.794 154.976, 237 152.474 C 237.825 151.831, 239.287 151.025, 240.250 150.683 C 242.519 149.879, 242.457 148.850, 239.946 145.658 C 235.250 139.689, 211.785 136.336, 195.500 139.307 C 188.460 140.592, 187.298 140.590, 185.819 139.291 C 184.048 137.736, 179.599 135.170, 174.372 132.689 C 169.530 130.390, 169.278 129.044, 173.097 125.876 C 174.969 124.324, 176.881 123.042, 177.346 123.027 C 177.811 123.012, 179.411 122.132, 180.902 121.070 L 183.612 119.140 192.109 123.320 C 204.892 129.608, 209.473 130.944, 222.020 132.045 C 235.594 133.236, 241.045 133.047, 241.692 131.361 C 241.952 130.682, 242.807 130.372, 243.591 130.673 C 244.375 130.974, 246.475 130.539, 248.258 129.705 C 250.041 128.872, 253.205 127.488, 255.290 126.630 C 258.872 125.154, 267.719 118.687, 269.169 116.483 C 269.537 115.924, 270.983 114.231, 272.383 112.721 C 273.999 110.977, 274.702 109.341, 274.309 108.238 C 273.553 106.115, 268.966 102.085, 267.250 102.036 C 265.237 101.978, 265.811 100.170, 268.250 98.885 C 269.488 98.234, 270.725 97.369, 271 96.963 C 271.275 96.557, 273.075 95.487, 275 94.586 C 278.558 92.920, 279.634 92.306, 286.266 88.167 C 290.919 85.263, 291.970 81.818, 289.314 78.170 C 285.834 73.386, 285.771 73.044, 288.190 71.973 C 293.624 69.565, 301.617 62.453, 304.097 57.819 C 305.715 54.795, 303.684 51.684, 296.626 46.378 C 291.334 42.400, 283.474 38.098, 280.544 37.577 C 279.970 37.475, 277.964 36.578, 276.086 35.585 C 274.208 34.592, 271.058 33.553, 269.086 33.277 C 262.762 32.393, 243.866 32.605, 243.171 33.569 C 242.802 34.081, 241.375 34.625, 240 34.778 C 238.625 34.931, 234.350 36.573, 230.500 38.428 C 226.650 40.282, 222.023 42.355, 220.218 43.034 C 218.413 43.713, 215.407 45.446, 213.537 46.884 C 208.012 51.136, 193.089 60.370, 191.325 60.629 C 189.609 60.880, 178 53.487, 178 52.143 C 178 50.945, 182.827 47.016, 185.590 45.966 C 191.611 43.677, 188.963 36.547, 180.628 32.604 C 174.388 29.652, 170.612 29.349, 166.380 31.460 C 162.384 33.454, 155 39.881, 155 41.366 C 155 42.031, 157.250 44.791, 160 47.500 C 162.750 50.209, 165 53.125, 165 53.980 C 165 54.946, 162.764 56.423, 159.095 57.880 C 153.258 60.199, 153.153 60.204, 149.903 58.363 C 148.095 57.338, 143.829 54.475, 140.423 52 C 131.845 45.767, 125.904 42.289, 116 37.703 C 111.325 35.538, 106.731 33.377, 105.791 32.900 C 104.851 32.424, 101.793 31.806, 98.996 31.528 C 96.198 31.250, 93.018 30.545, 91.929 29.962 C 89.857 28.853, 74.955 28.062, 69.101 28.750 M 63.500 34.303 C 60.200 34.746, 55.243 36.210, 52.484 37.555 C 49.725 38.900, 46.721 40, 45.807 40 C 43.176 40, 39.850 44.850, 41.003 47.005 C 42.809 50.379, 50.747 56.501, 58.205 60.270 L 65.665 64.039 72.583 62.902 C 80.855 61.541, 97.360 61.665, 105 63.145 C 108.025 63.731, 112.975 65.368, 116 66.783 C 121.481 69.346, 126.161 69.814, 133.985 68.580 L 137.500 68.026 133.250 70.210 C 130.912 71.411, 129 72.897, 129 73.511 C 129 74.126, 130.688 75.545, 132.750 76.664 C 134.813 77.784, 138.750 80.110, 141.500 81.834 C 146.487 84.961, 146.513 84.966, 151.448 83.473 C 154.170 82.650, 156.664 81.543, 156.992 81.013 C 157.319 80.484, 158.692 79.865, 160.043 79.638 C 161.484 79.397, 162.364 78.663, 162.171 77.863 C 161.758 76.148, 158.964 73, 157.856 73 C 157.397 73, 154.447 71.214, 151.300 69.031 C 148.154 66.848, 145.337 65.437, 145.040 65.896 C 144.743 66.355, 143.375 67.063, 142 67.469 C 139.571 68.186, 139.557 68.162, 141.500 66.629 C 143.455 65.086, 143.401 64.960, 139.104 61.046 C 136.686 58.844, 133.761 56.756, 132.604 56.406 C 131.447 56.056, 129.600 54.986, 128.500 54.028 C 125.088 51.057, 102.866 40.221, 95.500 37.936 C 86.042 35.003, 71 33.295, 63.500 34.303 M 164.889 38.237 C 162.955 39.774, 163.758 42.595, 166.943 45.460 C 168.811 47.140, 169.267 47.212, 170.137 45.960 C 171.018 44.693, 171.098 44.698, 170.738 46 C 169.961 48.818, 172.971 49.850, 177.163 48.204 C 181.676 46.431, 182.144 44.045, 178.534 41.205 C 177.178 40.138, 176.256 39.077, 176.486 38.847 C 176.716 38.617, 176.139 38.376, 175.202 38.312 C 174.266 38.248, 171.925 37.916, 170 37.576 C 167.791 37.185, 165.906 37.429, 164.889 38.237 M 267.412 39.368 C 266.879 40.759, 266.156 40.978, 264.114 40.369 C 261.037 39.452, 242.005 39.223, 242.002 40.103 C 242.001 40.435, 238.063 41.973, 233.250 43.520 C 224.958 46.187, 208.883 53.339, 206.324 55.500 C 205.672 56.050, 203.308 57.603, 201.070 58.951 C 198.831 60.299, 197 61.924, 197 62.562 C 197 63.640, 210.675 70, 212.991 70 C 213.561 70, 214.935 70.563, 216.044 71.250 C 217.489 72.145, 218.265 72.188, 218.781 71.400 C 220.405 68.916, 232.670 64.568, 241.500 63.347 C 254.827 61.503, 262.323 62.630, 275.498 68.456 C 282.547 71.574, 284.428 71.308, 291.466 66.199 C 296.884 62.266, 298.918 60.148, 298.968 58.386 C 299.016 56.703, 294.348 52.393, 290.500 50.567 C 288.622 49.676, 286.814 48.509, 286.483 47.973 C 286.153 47.438, 285.046 47, 284.024 47 C 283.003 47, 282.009 46.526, 281.815 45.946 C 281.622 45.366, 279.447 44.454, 276.982 43.918 C 274.137 43.301, 271.696 41.967, 270.298 40.266 C 268.327 37.869, 268.024 37.774, 267.412 39.368 M 164 57.176 C 162.075 58.295, 160.350 59.614, 160.167 60.106 C 159.983 60.597, 159.196 61, 158.417 61 C 156.263 61, 156.726 63.778, 159 64.500 C 160.100 64.849, 161 65.554, 161 66.067 C 161 66.580, 161.454 67, 162.009 67 C 162.563 67, 164.837 68.318, 167.061 69.930 L 171.106 72.859 176.169 70.513 C 178.954 69.223, 181.601 67.792, 182.050 67.333 C 182.879 66.487, 177.712 60, 176.208 60 C 175.757 60, 173.864 58.875, 172 57.500 C 168.029 54.570, 168.454 54.587, 164 57.176 M 242.116 66.329 C 242.022 67.817, 241.455 68.039, 239.084 67.518 C 237.480 67.166, 235.343 67.309, 234.334 67.836 C 233.325 68.363, 230.562 69.596, 228.192 70.575 C 222.947 72.743, 223.975 73.499, 233.500 74.482 C 237.350 74.879, 240.890 75.442, 241.367 75.733 C 242.681 76.536, 263.112 76.488, 266.250 75.675 C 267.762 75.283, 269 74.609, 269 74.178 C 269 72.901, 255.153 68.824, 248.887 68.256 C 244.702 67.877, 242.975 67.283, 242.663 66.115 C 242.312 64.801, 242.210 64.841, 242.116 66.329 M 79.529 66.954 C 79.134 67.592, 80.171 68.059, 82.191 68.152 C 86.230 68.338, 87.017 68.484, 89.265 69.459 C 90.236 69.881, 91.951 69.985, 93.076 69.690 C 94.202 69.396, 95.325 69.683, 95.573 70.328 C 95.821 70.972, 98.156 71.614, 100.762 71.752 C 105.216 71.990, 105.380 71.912, 103.500 70.455 C 102.400 69.602, 100.711 69.109, 99.748 69.359 C 98.784 69.609, 97.612 69.129, 97.143 68.292 C 96.105 66.437, 80.577 65.257, 79.529 66.954 M 184.501 67.002 C 184.842 67.553, 184.081 68.437, 182.810 68.967 C 179.568 70.319, 175.999 73.569, 176.008 75.160 C 176.014 76.266, 181.697 80.321, 185.454 81.901 C 185.979 82.122, 187.304 83.137, 188.399 84.157 C 190.687 86.289, 191.589 86.097, 200.127 81.662 C 206.241 78.487, 208.662 76, 205.640 76 C 204.800 76, 203.525 75.160, 202.807 74.134 C 202.088 73.108, 201.050 72.206, 200.500 72.129 C 198.065 71.790, 192.294 69.541, 189.524 67.852 C 186.249 65.854, 183.505 65.390, 184.501 67.002 M 61.013 70.784 C 54.539 74.087, 56.642 79.208, 67.078 85.547 C 72.692 88.958, 73.305 89.116, 76.209 87.913 C 78.295 87.049, 83.451 86.693, 91.832 86.834 C 104.036 87.038, 111.411 88.369, 117.723 91.506 C 120.159 92.717, 121.420 92.640, 127.985 90.875 C 132.102 89.768, 135.637 88.697, 135.840 88.493 C 136.588 87.745, 128.607 81.506, 121.470 77.259 C 114.620 73.182, 113.871 72.957, 110.313 73.908 C 108.216 74.469, 105.600 74.930, 104.500 74.934 C 103.400 74.937, 100.925 75.182, 99 75.478 C 96.860 75.806, 96.203 75.708, 97.308 75.224 C 98.437 74.730, 96.561 74.406, 92.308 74.361 C 88.564 74.322, 82.800 73.754, 79.500 73.099 C 76.200 72.444, 71.925 71.657, 70 71.350 C 68.075 71.043, 66.022 70.404, 65.438 69.930 C 64.814 69.423, 62.991 69.775, 61.013 70.784 M 219.030 76.652 C 219.001 78.734, 218.853 78.760, 214.528 77.458 C 210.237 76.167, 209.981 76.209, 208.186 78.491 C 207.157 79.799, 204.444 81.680, 202.157 82.671 C 199.460 83.839, 198 85.112, 198 86.295 C 198 87.298, 197.550 87.840, 197 87.500 C 195.587 86.627, 195.756 87.902, 197.250 89.381 C 198.395 90.515, 202.320 92.664, 212.208 97.570 C 215.807 99.356, 216.029 99.356, 219.708 97.574 C 226.492 94.289, 249.801 93.952, 255.602 97.055 C 258.248 98.470, 265.305 96.256, 271.354 92.114 C 273.634 90.552, 276.401 88.992, 277.502 88.648 C 278.604 88.304, 280.097 87.074, 280.821 85.915 C 281.933 84.135, 281.893 83.539, 280.566 82.073 C 279.702 81.119, 279.221 80.112, 279.496 79.837 C 279.772 79.562, 278.893 78.746, 277.544 78.024 C 275.487 76.923, 274.155 76.964, 269.296 78.281 C 266.108 79.145, 260.575 80.128, 257 80.465 C 253.425 80.802, 249.047 81.263, 247.272 81.489 C 244.978 81.781, 243.756 81.407, 243.052 80.200 C 242.356 79.006, 242.052 78.911, 242.030 79.879 C 242.006 80.984, 240.329 81.147, 233.563 80.698 C 224.728 80.111, 221.758 79.129, 220.073 76.238 C 219.164 74.677, 219.058 74.719, 219.030 76.652 M 163 79.964 C 162.175 80.443, 159.250 81.944, 156.500 83.299 C 153.750 84.654, 151.500 86.440, 151.500 87.266 C 151.500 89.209, 164.582 98, 167.473 98 C 169.862 98, 182.019 92.274, 181.971 91.172 C 181.923 90.072, 176.636 84.588, 173.456 82.339 C 169.941 79.854, 165.088 78.751, 163 79.964 M 82 90.778 C 82 92.527, 95.725 95.533, 101.964 95.151 C 104.234 95.012, 104.301 94.872, 102.812 93.384 C 100.769 91.340, 92.927 89.821, 91.314 91.157 C 90.533 91.803, 89.445 91.773, 88.130 91.069 C 85.806 89.826, 82 89.645, 82 90.778 M 132.230 91.886 C 129.332 92.887, 126.684 93.983, 126.345 94.322 C 125.343 95.324, 128.677 99.660, 132.729 102.627 C 134.803 104.145, 137.667 106.442, 139.094 107.731 C 141.541 109.943, 141.967 110.005, 146.594 108.839 C 149.292 108.159, 152.175 107.063, 153 106.404 C 153.825 105.745, 155.318 105.048, 156.317 104.853 C 160.468 104.046, 144.388 89.948, 139.412 90.033 C 138.361 90.051, 135.129 90.884, 132.230 91.886 M 185 93.034 C 184.175 93.538, 181.406 94.891, 178.846 96.040 C 174.604 97.945, 170.084 101.594, 171.089 102.301 C 175.602 105.479, 189.176 113, 190.398 113 C 191.306 113, 194.347 111.419, 197.157 109.486 C 199.967 107.553, 203.331 105.704, 204.633 105.377 C 205.935 105.051, 207 104.435, 207 104.010 C 207 102.828, 200.325 98, 198.689 98 C 197.895 98, 196.663 97.299, 195.952 96.442 C 194.755 95, 188.563 91.924, 187.128 92.059 C 186.783 92.091, 185.825 92.530, 185 93.034 M 71.250 95.733 C 68.896 96.550, 70.003 98.866, 75.016 103.613 C 82.090 110.310, 87.144 113.045, 97.339 115.693 C 108.463 118.582, 122.313 118.776, 128.824 116.133 C 131.202 115.168, 133.002 113.968, 132.824 113.466 C 132.311 112.021, 120.420 102.202, 116.552 100.029 C 113.892 98.535, 111.892 98.188, 108.272 98.592 C 95.018 100.070, 78 99.107, 78 96.879 C 78 96.498, 77.054 96.435, 75.898 96.737 C 74.741 97.039, 73.504 96.840, 73.148 96.293 C 72.791 95.747, 71.938 95.495, 71.250 95.733 M 231.500 101 C 230.018 101.637, 230.794 101.874, 234.500 101.914 C 238.078 101.954, 239.073 101.694, 238 101 C 236.203 99.839, 234.202 99.839, 231.500 101 M 204.968 108.374 C 195.980 112.794, 193.576 115.485, 196.623 117.714 C 197.656 118.469, 199.625 119.361, 201 119.696 C 202.375 120.031, 204.573 121.136, 205.885 122.152 C 207.197 123.169, 209.537 124, 211.086 124 C 212.635 124, 216.494 124.675, 219.661 125.500 C 222.829 126.325, 229.266 127, 233.967 127 C 242.188 127, 242.896 126.812, 252.507 122.073 C 265.693 115.572, 266.309 115.078, 265.453 111.671 C 264.313 107.129, 258.122 104.616, 249.790 105.314 C 244.887 105.725, 242.996 105.552, 242.985 104.692 C 242.973 103.800, 242.784 103.791, 242.232 104.658 C 240.918 106.724, 234.725 107.083, 223.776 105.726 L 213.052 104.398 204.968 108.374 M 157.081 106.402 C 156.442 107.173, 154.727 108.103, 153.271 108.468 C 150.608 109.136, 148.091 111.586, 148.032 113.566 C 148.014 114.152, 149.800 115.643, 152 116.880 C 154.200 118.116, 156 119.549, 156 120.064 C 156 120.579, 156.498 121, 157.106 121 C 157.714 121, 159.983 122.403, 162.148 124.117 C 165.808 127.016, 166.209 127.121, 167.871 125.617 C 168.853 124.728, 170.115 124, 170.674 124 C 171.233 124, 172.482 123.125, 173.449 122.056 C 174.417 120.987, 176.139 119.974, 177.276 119.806 C 178.413 119.638, 179.473 119.050, 179.631 118.500 C 179.913 117.519, 173.931 112.853, 169 110.208 C 167.625 109.471, 165.571 107.997, 164.436 106.934 C 162.010 104.662, 158.723 104.424, 157.081 106.402 M 156.855 135.893 C 150.612 140.357, 150.499 141.336, 155.819 144.800 C 158.393 146.476, 161.494 148.782, 162.708 149.924 C 163.923 151.066, 165.323 152, 165.819 152 C 166.315 152, 169.248 150.336, 172.337 148.302 L 177.952 144.604 175.866 142.661 C 174.003 140.925, 171.905 139.623, 163 134.676 C 160.726 133.412, 160.170 133.523, 156.855 135.893 M 104.587 137.312 C 98.809 141.538, 114.408 146.664, 127.250 144.759 C 130.963 144.209, 134 143.439, 134 143.048 C 134 141.421, 121.664 136.509, 121.185 137.945 C 120.959 138.623, 120.226 138.656, 119.077 138.041 C 115.781 136.277, 106.632 135.817, 104.587 137.312 M 198.500 141.838 C 196.850 142.213, 195.554 142.957, 195.621 143.491 C 195.925 145.941, 209.179 151.179, 218.333 152.467 C 226.468 153.612, 234.722 151.316, 229 149.500 C 227.900 149.151, 227 148.229, 227 147.452 C 227 146.674, 225.762 145.768, 224.250 145.438 C 222.738 145.108, 220.375 144.430, 219 143.932 C 213.706 142.015, 202.676 140.888, 198.500 141.838 M 130.702 160.777 C 129.378 162.240, 129.306 162.972, 130.297 164.919 C 130.959 166.220, 132.442 167.903, 133.593 168.660 C 137.785 171.415, 143.384 163.784, 139.800 160.200 C 138.004 158.404, 132.536 158.750, 130.702 160.777 M 164.543 161.931 C 164.226 162.443, 164.425 163.144, 164.984 163.490 C 165.543 163.835, 166 163.416, 166 162.559 C 166 160.802, 165.400 160.544, 164.543 161.931 M 187.447 164.059 C 185.258 166.478, 186.151 168.622, 190.340 171 C 195.373 173.857, 199.213 168.213, 195.061 164.061 C 192.441 161.441, 189.817 161.440, 187.447 164.059 M 159.862 165.750 C 157.324 168.817, 156.124 172.305, 154.941 180.060 C 153.964 186.459, 154.039 188.602, 155.427 194.022 C 156.329 197.543, 157.441 200.666, 157.899 200.962 C 158.356 201.258, 159.018 202.400, 159.369 203.500 C 159.720 204.600, 161.840 207.412, 164.079 209.750 C 168.182 214.033, 172 215.332, 172 212.445 C 172 211.590, 172.926 208.857, 174.058 206.372 C 177.070 199.762, 176.725 185.533, 173.400 179.159 C 172.637 177.697, 172.010 175.986, 172.006 175.357 C 172 174.124, 163.049 164, 161.966 164 C 161.605 164, 160.658 164.787, 159.862 165.750" stroke="none" fill="#444345" fill-rule="evenodd"/></svg>