<?xml version="1.0" encoding="UTF-8" standalone="no"?>
<svg
   xmlns:dc="http://purl.org/dc/elements/1.1/"
   xmlns:cc="http://creativecommons.org/ns#"
   xmlns:rdf="http://www.w3.org/1999/02/22-rdf-syntax-ns#"
   xmlns:svg="http://www.w3.org/2000/svg"
   xmlns="http://www.w3.org/2000/svg"
   xmlns:sodipodi="http://sodipodi.sourceforge.net/DTD/sodipodi-0.dtd"
   xmlns:inkscape="http://www.inkscape.org/namespaces/inkscape"
   inkscape:version="1.0 (4035a4f, 2020-05-01)"
   sodipodi:docname="ICML Logo 2018.svg"
   viewBox="0 0 276.85013 95.665329"
   width="63" 
   height="27"
   xml:space="preserve"
   id="svg604"
   version="1.1"><metadata
     id="metadata610"><rdf:RDF><cc:Work
         rdf:about=""><dc:format>image/svg+xml</dc:format><dc:type
           rdf:resource="http://purl.org/dc/dcmitype/StillImage" /><dc:title></dc:title></cc:Work></rdf:RDF></metadata><defs
     id="defs608"><clipPath
       id="clipPath624"
       clipPathUnits="userSpaceOnUse"><path
         id="path622"
         d="M 0,108 H 216 V 0 H 0 Z" /></clipPath></defs><sodipodi:namedview
     inkscape:current-layer="g612"
     inkscape:window-maximized="0"
     inkscape:window-y="119"
     inkscape:window-x="151"
     inkscape:cy="47.832668"
     inkscape:cx="138.42506"
     inkscape:zoom="2.0978231"
     fit-margin-bottom="4"
     fit-margin-right="4"
     fit-margin-left="4"
     fit-margin-top="4"
     lock-margins="true"
     showgrid="false"
     id="namedview606"
     inkscape:window-height="480"
     inkscape:window-width="763"
     inkscape:pageshadow="2"
     inkscape:pageopacity="0"
     guidetolerance="10"
     gridtolerance="10"
     objecttolerance="10"
     borderopacity="1"
     bordercolor="#666666"
     pagecolor="#ffffff" /><g
     transform="matrix(1.3333333,0,0,-1.3333333,-5.4037331,119.5584)"
     inkscape:label="ICML Logo 2018"
     inkscape:groupmode="layer"
     id="g612"><g
       transform="translate(102.7295,81.3989)"
       id="g614"><path
         id="path616"
         style="fill:#100f0d;fill-opacity:1;fill-rule:nonzero;stroke:none"
         d="m 0,0 v -5.525 h -2.902 v -20.64 H 0 v -5.524 h -13.62 v 5.524 h 2.903 v 20.64 H -13.62 V 0 Z" /></g><g
       id="g618"><g
         clip-path="url(#clipPath624)"
         id="g620"><g
           transform="translate(132.584,50.8369)"
           id="g626"><path
             id="path628"
             style="fill:#100f0d;fill-opacity:1;fill-rule:nonzero;stroke:none"
             d="m 0,0 c -2.532,-1.12 -5.839,-1.68 -9.919,-1.68 -5.322,0 -9.508,1.429 -12.557,4.287 -3.047,2.858 -4.572,6.667 -4.572,11.425 0,5.068 1.714,9.178 5.142,12.331 3.427,3.153 7.874,4.729 13.342,4.729 3.386,0 6.242,-0.39 8.564,-1.171 v -6.873 c -2.322,1.267 -4.968,1.901 -7.936,1.901 -3.257,0 -5.886,-0.936 -7.886,-2.806 -2,-1.872 -3,-4.406 -3,-7.602 0,-3.065 0.943,-5.507 2.831,-7.326 1.887,-1.819 4.427,-2.729 7.62,-2.729 3.049,0 5.839,0.678 8.371,2.033 z" /></g><g
           transform="translate(178.1621,49.71)"
           id="g630"><path
             id="path632"
             style="fill:#100f0d;fill-opacity:1;fill-rule:nonzero;stroke:none"
             d="m 0,0 h -7.717 v 18.96 c 0,2.048 0.097,4.31 0.29,6.784 H -7.62 C -8.023,23.8 -8.387,22.4 -8.709,21.546 L -16.838,0 h -6.387 l -8.273,21.325 c -0.227,0.574 -0.59,2.047 -1.089,4.419 h -0.218 c 0.209,-3.123 0.315,-5.863 0.315,-8.22 V 0 h -7.04 v 31.689 h 11.443 l 7.088,-18.784 c 0.564,-1.502 0.976,-3.012 1.234,-4.53 h 0.145 c 0.435,1.753 0.895,3.278 1.379,4.575 l 7.089,18.739 H 0 Z" /></g><g
           transform="translate(206.71,49.71)"
           id="g634"><path
             id="path636"
             style="fill:#100f0d;fill-opacity:1;fill-rule:nonzero;stroke:none"
             d="m 0,0 h -20.66 v 31.689 h 7.814 V 5.79 H 0 Z" /></g><g
           transform="translate(88.9834,45.7217)"
           id="g788"><path
             id="path790"
             style="fill:none;stroke:#100f0d;stroke-width:1;stroke-linecap:round;stroke-linejoin:miter;stroke-miterlimit:10;stroke-dasharray:none;stroke-opacity:1"
             d="M 0,0 H 119.207" /></g><g
           transform="translate(25.2256,57.9727)"
           id="g792"><path
             id="path794"
             style="fill:#94d222;fill-opacity:1;fill-rule:nonzero;stroke:none"
             d="m 0,0 c 0,-0.682 -0.553,-1.235 -1.235,-1.235 h -8.4 c -0.682,0 -1.236,0.553 -1.236,1.235 v 8.4 c 0,0.683 0.554,1.236 1.236,1.236 h 8.4 C -0.553,9.636 0,9.083 0,8.4 Z" /></g><g
           transform="translate(35.6738,68.8438)"
           id="g796"><path
             id="path798"
             style="fill:#2a419e;fill-opacity:1;fill-rule:nonzero;stroke:none"
             d="m 0,0 c 0,-0.682 -0.554,-1.235 -1.235,-1.235 h -7.11 c -0.682,0 -1.236,0.553 -1.236,1.235 v 7.11 c 0,0.682 0.554,1.235 1.236,1.235 h 7.11 C -0.554,8.345 0,7.792 0,7.11 Z" /></g><g
           transform="translate(23.3193,75.0635)"
           id="g800"><path
             id="path802"
             style="fill:#ed1e24;fill-opacity:1;fill-rule:nonzero;stroke:none"
             d="m 0,0 c 0,-0.683 -0.553,-1.235 -1.234,-1.235 h -4.924 c -0.682,0 -1.236,0.552 -1.236,1.235 v 4.923 c 0,0.682 0.554,1.236 1.236,1.236 h 4.924 C -0.553,6.159 0,5.605 0,4.923 Z" /></g><g
           transform="translate(12.9688,69.1479)"
           id="g804"><path
             id="path806"
             style="fill:#f79011;fill-opacity:1;fill-rule:nonzero;stroke:none"
             d="M 0,0 C 0,-0.682 -0.554,-1.235 -1.236,-1.235 H -4.68 c -0.682,0 -1.236,0.553 -1.236,1.235 v 3.444 c 0,0.683 0.554,1.236 1.236,1.236 h 3.444 C -0.554,4.68 0,4.127 0,3.444 Z" /></g><g
           transform="translate(60.2002,72.3828)"
           id="g808"><path
             id="path810"
             style="fill:#231f20;fill-opacity:1;fill-rule:nonzero;stroke:none"
             d="m 0,0 c 0,-0.682 -0.554,-1.235 -1.235,-1.235 h -1.412 c -0.682,0 -1.236,0.553 -1.236,1.235 v 1.412 c 0,0.682 0.554,1.234 1.236,1.234 h 1.412 C -0.554,2.646 0,2.094 0,1.412 Z m -1.479,-10.26 c 0,-0.682 -0.553,-1.235 -1.236,-1.235 h -4.553 c -0.682,0 -1.236,0.553 -1.236,1.235 v 4.554 c 0,0.683 0.554,1.236 1.236,1.236 h 4.553 c 0.683,0 1.236,-0.553 1.236,-1.236 z m -8.596,-10.629 c 0,-0.681 -0.554,-1.235 -1.236,-1.235 h -8.159 c -0.681,0 -1.234,0.554 -1.234,1.235 v 8.159 c 0,0.682 0.553,1.235 1.234,1.235 h 8.159 c 0.682,0 1.236,-0.553 1.236,-1.235 z m -2.033,27.753 c 0,0.683 0.552,1.236 1.234,1.236 h 2.983 c 0.682,0 1.236,-0.553 1.236,-1.236 V 3.882 c 0,-0.682 -0.554,-1.236 -1.236,-1.236 h -2.983 c -0.682,0 -1.234,0.554 -1.234,1.236 z M 10.446,-13.423 C 9.674,-13.81 9.48,-14.003 9.48,-12.94 v 6.275 c 0,1.452 0.548,20.951 -21.916,20.951 -6.089,0 -11.648,-1.545 -11.648,-2.994 0,-1.448 -0.033,-3.475 -0.033,-4.634 0,-1.244 0.675,-1.852 1.641,-1.852 h 5.6 c 0.677,0 1.737,-0.071 1.737,-1.265 v -6.248 c 0,-1.641 -0.809,-1.858 -1.678,-1.858 h -5.792 c -0.869,0 -1.702,-0.459 -1.702,-1.521 v -5.873 c 0,-0.854 -0.385,-1.561 -1.64,-1.561 h -5.813 c -0.772,0 -1.606,-0.964 -1.606,-2.412 0,-1.448 -0.016,-4.443 -0.016,-5.312 0,-0.869 -0.772,-0.772 -2.703,-0.772 0,0 0,-2.799 1.255,-5.986 0.671,-1.704 1.738,-2.123 3.572,-1.544 0,0 0.222,-4.619 1.284,-7.515 1.062,-2.896 1.999,-4.748 4.992,-6.871 2.994,-2.125 3.283,-2.704 5.31,-4.345 2.027,-1.642 2.896,-3.186 8.014,-3.186 5.213,0 6.468,2.027 8.592,4.151 2.124,2.125 4.56,2.207 7.53,6.663 2.511,3.765 2.647,6.812 2.993,11.2 0,0 2.704,-1.352 3.573,1.351 0.532,1.657 2.123,9.075 2.703,13.033 0.579,3.959 -2.51,2.028 -3.283,1.642" /></g></g></g></g></svg>
