<?xml version="1.0" standalone="no"?>
<!DOCTYPE svg PUBLIC "-//W3C//DTD SVG 20010904//EN"
 "http://www.w3.org/TR/2001/REC-SVG-20010904/DTD/svg10.dtd">
<svg version="1.0" xmlns="http://www.w3.org/2000/svg"
 width="200.000000pt" height="191.000000pt" viewBox="0 0 200.000000 191.000000"
 preserveAspectRatio="xMidYMid meet">
<metadata>
Created by potrace 1.15, written by Peter Selinger 2001-2017
</metadata>
<g transform="translate(0.000000,191.000000) scale(0.100000,-0.100000)"
fill="#000000" stroke="none">
<path d="M469 1443 c31 -83 385 -1026 396 -1056 6 -15 18 -17 79 -15 l71 3
108 245 c60 135 144 326 187 425 43 99 107 247 144 328 l65 148 -75 -3 -75 -3
-67 -160 -67 -160 -260 0 -260 0 -56 160 -55 160 -82 3 -82 3 29 -78z m647
-520 c-35 -82 -85 -201 -112 -265 -27 -65 -51 -118 -54 -118 -3 0 -21 49 -41
108 -20 59 -62 178 -92 265 l-56 157 209 0 208 0 -62 -147z"/>
</g>
</svg>
