<?xml version="1.0" encoding="UTF-8" standalone="no"?>
<!DOCTYPE svg PUBLIC "-//W3C//DTD SVG 1.1//EN"
 "http://www.w3.org/Graphics/SVG/1.1/DTD/svg11.dtd">
<!-- Generated by graphviz version 2.40.1 (20161225.0304)
 -->
<!-- Title: G Pages: 1 -->
<svg width="616pt" height="170pt"
 viewBox="0.00 0.00 615.81 169.87" xmlns="http://www.w3.org/2000/svg" xmlns:xlink="http://www.w3.org/1999/xlink">
<g id="graph0" class="graph" transform="scale(1 1) rotate(0) translate(4 165.8701)">
<title>G</title>
<polygon fill="#ffffff" stroke="transparent" points="-4,4 -4,-165.8701 611.811,-165.8701 611.811,4 -4,4"/>
<!-- Caffeine
use -->
<g id="node1" class="node">
<title>Caffeine
use</title>
<ellipse fill="none" stroke="#000000" cx="44.5477" cy="-89.8701" rx="44.5955" ry="26.7407"/>
<text text-anchor="middle" x="44.5477" y="-93.6701" font-family="Times,serif" font-size="14.00" fill="#000000">Caffeine</text>
<text text-anchor="middle" x="44.5477" y="-78.6701" font-family="Times,serif" font-size="14.00" fill="#000000">use</text>
</g>
<!-- arousal -->
<g id="node2" class="node">
<title>arousal</title>
<ellipse fill="none" stroke="#000000" cx="293.6293" cy="-143.8701" rx="36.2938" ry="18"/>
<text text-anchor="middle" x="293.6293" y="-140.1701" font-family="Times,serif" font-size="14.00" fill="#000000">arousal</text>
</g>
<!-- Caffeine
use&#45;&gt;arousal -->
<g id="edge1" class="edge">
<title>Caffeine
use&#45;&gt;arousal</title>
<path fill="none" stroke="#000000" d="M78.2141,-107.5365C92.5972,-114.3375 109.7998,-121.511 126.0955,-125.8701 166.0474,-136.5572 212.9665,-140.93 246.9732,-142.7033"/>
<polygon fill="#000000" stroke="#000000" points="246.9385,-146.2054 257.0904,-143.1743 247.2641,-139.213 246.9385,-146.2054"/>
</g>
<!-- adenosine
antagonism -->
<g id="node4" class="node">
<title>adenosine
antagonism</title>
<ellipse fill="none" stroke="#000000" cx="182.664" cy="-89.8701" rx="56.6372" ry="26.7407"/>
<text text-anchor="middle" x="182.664" y="-93.6701" font-family="Times,serif" font-size="14.00" fill="#000000">adenosine</text>
<text text-anchor="middle" x="182.664" y="-78.6701" font-family="Times,serif" font-size="14.00" fill="#000000">antagonism</text>
</g>
<!-- Caffeine
use&#45;&gt;adenosine
antagonism -->
<g id="edge3" class="edge">
<title>Caffeine
use&#45;&gt;adenosine
antagonism</title>
<path fill="none" stroke="#000000" d="M89.3901,-89.8701C97.8601,-89.8701 106.8866,-89.8701 115.8622,-89.8701"/>
<polygon fill="#000000" stroke="#000000" points="115.9419,-93.3702 125.9419,-89.8701 115.9419,-86.3702 115.9419,-93.3702"/>
</g>
<!-- tolerance -->
<g id="node6" class="node">
<title>tolerance</title>
<ellipse fill="none" stroke="#000000" cx="182.664" cy="-26.8701" rx="42.7926" ry="18"/>
<text text-anchor="middle" x="182.664" y="-23.1701" font-family="Times,serif" font-size="14.00" fill="#000000">tolerance</text>
</g>
<!-- Caffeine
use&#45;&gt;tolerance -->
<g id="edge6" class="edge">
<title>Caffeine
use&#45;&gt;tolerance</title>
<path fill="none" stroke="#000000" d="M80.1161,-73.646C99.7121,-64.7075 124.055,-53.6038 144.1054,-44.4581"/>
<polygon fill="#000000" stroke="#000000" points="145.6271,-47.611 153.2727,-40.2765 142.722,-41.2422 145.6271,-47.611"/>
</g>
<!-- productivity -->
<g id="node3" class="node">
<title>productivity</title>
<ellipse fill="none" stroke="#000000" cx="553.8657" cy="-89.8701" rx="53.8905" ry="18"/>
<text text-anchor="middle" x="553.8657" y="-86.1701" font-family="Times,serif" font-size="14.00" fill="#000000">productivity</text>
</g>
<!-- arousal&#45;&gt;productivity -->
<g id="edge2" class="edge">
<title>arousal&#45;&gt;productivity</title>
<path fill="none" stroke="#000000" d="M328.8774,-139.1619C362.0916,-134.4614 413.1538,-126.5536 456.9205,-116.8701 472.4533,-113.4334 489.2012,-109.0257 504.3347,-104.7724"/>
<polygon fill="#000000" stroke="#000000" points="505.3605,-108.1195 514.0174,-102.0115 503.441,-101.3878 505.3605,-108.1195"/>
<text text-anchor="middle" x="402.4733" y="-139.6701" font-family="Times,serif" font-size="14.00" fill="#000000">a</text>
</g>
<!-- poor sleep -->
<g id="node5" class="node">
<title>poor sleep</title>
<ellipse fill="none" stroke="#000000" cx="402.4733" cy="-89.8701" rx="47.3916" ry="18"/>
<text text-anchor="middle" x="402.4733" y="-86.1701" font-family="Times,serif" font-size="14.00" fill="#000000">poor sleep</text>
</g>
<!-- adenosine
antagonism&#45;&gt;poor sleep -->
<g id="edge4" class="edge">
<title>adenosine
antagonism&#45;&gt;poor sleep</title>
<path fill="none" stroke="#000000" d="M239.2704,-89.8701C271.6385,-89.8701 312.1448,-89.8701 344.7049,-89.8701"/>
<polygon fill="#000000" stroke="#000000" points="344.9768,-93.3702 354.9767,-89.8701 344.9767,-86.3702 344.9768,-93.3702"/>
</g>
<!-- poor sleep&#45;&gt;productivity -->
<g id="edge5" class="edge">
<title>poor sleep&#45;&gt;productivity</title>
<path fill="none" stroke="#000000" d="M449.9594,-89.8701C462.5359,-89.8701 476.3248,-89.8701 489.63,-89.8701"/>
<polygon fill="#000000" stroke="#000000" points="489.6823,-93.3702 499.6823,-89.8701 489.6822,-86.3702 489.6823,-93.3702"/>
<text text-anchor="middle" x="478.4205" y="-93.6701" font-family="Times,serif" font-size="14.00" fill="#000000">b</text>
</g>
<!-- morning
withdrawal -->
<g id="node7" class="node">
<title>morning
withdrawal</title>
<ellipse fill="none" stroke="#000000" cx="402.4733" cy="-26.8701" rx="54.3945" ry="26.7407"/>
<text text-anchor="middle" x="402.4733" y="-30.6701" font-family="Times,serif" font-size="14.00" fill="#000000">morning</text>
<text text-anchor="middle" x="402.4733" y="-15.6701" font-family="Times,serif" font-size="14.00" fill="#000000">withdrawal</text>
</g>
<!-- tolerance&#45;&gt;morning
withdrawal -->
<g id="edge7" class="edge">
<title>tolerance&#45;&gt;morning
withdrawal</title>
<path fill="none" stroke="#000000" d="M225.5673,-26.8701C257.4071,-26.8701 301.3788,-26.8701 337.5171,-26.8701"/>
<polygon fill="#000000" stroke="#000000" points="337.9708,-30.3702 347.9708,-26.8701 337.9707,-23.3702 337.9708,-30.3702"/>
</g>
<!-- morning
withdrawal&#45;&gt;productivity -->
<g id="edge8" class="edge">
<title>morning
withdrawal&#45;&gt;productivity</title>
<path fill="none" stroke="#000000" d="M444.2427,-44.2519C464.887,-52.8427 489.7761,-63.2 510.6174,-71.8728"/>
<polygon fill="#000000" stroke="#000000" points="509.3013,-75.1161 519.8785,-75.7267 511.9907,-68.6533 509.3013,-75.1161"/>
<text text-anchor="middle" x="478.4205" y="-61.6701" font-family="Times,serif" font-size="14.00" fill="#000000">c</text>
</g>
</g>
</svg>
