<?xml version="1.0" encoding="UTF-8" standalone="no"?>
<!DOCTYPE svg PUBLIC "-//W3C//DTD SVG 1.1//EN"
 "http://www.w3.org/Graphics/SVG/1.1/DTD/svg11.dtd">
<!-- Generated by graphviz version 2.40.1 (20161225.0304)
 -->
<!-- Title: G Pages: 1 -->
<svg width="542pt" height="62pt"
 viewBox="0.00 0.00 542.41 61.74" xmlns="http://www.w3.org/2000/svg" xmlns:xlink="http://www.w3.org/1999/xlink">
<g id="graph0" class="graph" transform="scale(1 1) rotate(0) translate(4 57.7401)">
<title>G</title>
<polygon fill="#ffffff" stroke="transparent" points="-4,4 -4,-57.7401 538.4093,-57.7401 538.4093,4 -4,4"/>
<!-- Caffeine use -->
<g id="node1" class="node">
<title>Caffeine use</title>
<ellipse fill="none" stroke="#000000" cx="55.2451" cy="-26.8701" rx="55.4913" ry="18"/>
<text text-anchor="middle" x="55.2451" y="-23.1701" font-family="Times,serif" font-size="14.00" fill="#000000">Caffeine use</text>
</g>
<!-- adenosine
antagonism -->
<g id="node2" class="node">
<title>adenosine
antagonism</title>
<ellipse fill="none" stroke="#000000" cx="203.0587" cy="-26.8701" rx="56.6372" ry="26.7407"/>
<text text-anchor="middle" x="203.0587" y="-30.6701" font-family="Times,serif" font-size="14.00" fill="#000000">adenosine</text>
<text text-anchor="middle" x="203.0587" y="-15.6701" font-family="Times,serif" font-size="14.00" fill="#000000">antagonism</text>
</g>
<!-- Caffeine use&#45;&gt;adenosine
antagonism -->
<g id="edge1" class="edge">
<title>Caffeine use&#45;&gt;adenosine
antagonism</title>
<path fill="none" stroke="#000000" d="M110.706,-26.8701C118.976,-26.8701 127.5752,-26.8701 136.0523,-26.8701"/>
<polygon fill="#000000" stroke="#000000" points="136.3015,-30.3702 146.3015,-26.8701 136.3015,-23.3702 136.3015,-30.3702"/>
</g>
<!-- poor sleep -->
<g id="node3" class="node">
<title>poor sleep</title>
<ellipse fill="none" stroke="#000000" cx="343.0731" cy="-26.8701" rx="47.3916" ry="18"/>
<text text-anchor="middle" x="343.0731" y="-23.1701" font-family="Times,serif" font-size="14.00" fill="#000000">poor sleep</text>
</g>
<!-- adenosine
antagonism&#45;&gt;poor sleep -->
<g id="edge2" class="edge">
<title>adenosine
antagonism&#45;&gt;poor sleep</title>
<path fill="none" stroke="#000000" d="M260.0079,-26.8701C268.4047,-26.8701 277.0613,-26.8701 285.4712,-26.8701"/>
<polygon fill="#000000" stroke="#000000" points="285.573,-30.3702 295.5729,-26.8701 285.5729,-23.3702 285.573,-30.3702"/>
</g>
<!-- productivity -->
<g id="node4" class="node">
<title>productivity</title>
<ellipse fill="none" stroke="#000000" cx="480.4641" cy="-26.8701" rx="53.8905" ry="18"/>
<text text-anchor="middle" x="480.4641" y="-23.1701" font-family="Times,serif" font-size="14.00" fill="#000000">productivity</text>
</g>
<!-- poor sleep&#45;&gt;productivity -->
<g id="edge3" class="edge">
<title>poor sleep&#45;&gt;productivity</title>
<path fill="none" stroke="#000000" d="M390.7402,-26.8701C398.9846,-26.8701 407.6763,-26.8701 416.2734,-26.8701"/>
<polygon fill="#000000" stroke="#000000" points="416.2899,-30.3702 426.2899,-26.8701 416.2898,-23.3702 416.2899,-30.3702"/>
</g>
</g>
</svg>
