<svg id="EA_Lightbulb" data-name="EA Lightbulb" xmlns="http://www.w3.org/2000/svg" xmlns:xlink="http://www.w3.org/1999/xlink" width="99.99mm" height="157.08mm" viewBox="0 0 283.42 445.27">
  <defs>
    <style>
      .cls-1 {
        fill: none;
      }

      .cls-2 {
        clip-path: url(#clip-path);
      }

      .cls-3 {
        fill: url(#linear-gradient);
      }

      .cls-4 {
        clip-path: url(#clip-path-2);
      }

      .cls-5 {
        fill: url(#linear-gradient-2);
      }

      .cls-6 {
        fill: #00839b;
      }

      .cls-7 {
        clip-path: url(#clip-path-3);
      }

      .cls-8 {
        fill: url(#linear-gradient-3);
      }
    </style>
    <clipPath id="clip-path">
      <path class="cls-1" d="M82.92,402.23a12.44,12.44,0,0,0,12.45,12.43c57.9,0,86.43,1.06,102.14,25A12.43,12.43,0,0,0,218.3,426c-23.76-36.22-65.36-36.22-122.93-36.22a12.44,12.44,0,0,0-12.45,12.43"/>
    </clipPath>
    <linearGradient id="linear-gradient" x1="-588.18" y1="575.93" x2="-583.67" y2="575.93" gradientTransform="matrix(0, -5.96, -5.96, 0, 3587.57, -3062.87)" gradientUnits="userSpaceOnUse">
      <stop offset="0" stop-color="#00839b"/>
      <stop offset="1" stop-color="#1f5369"/>
    </linearGradient>
    <clipPath id="clip-path-2">
      <path class="cls-1" d="M82.92,352.31a12.44,12.44,0,0,0,12.45,12.42c59.29,0,95.23,2.61,99.62,15.38-1,2.44-4.24,4.85-14.44,6.78-15.7,3-40.47,2.93-74.75,2.9H95.37a12.43,12.43,0,1,0,0,24.87H115.3c30.75,0,53.51-.26,69.87-3.34,16.81-3.17,27.6-10.11,32.36-20.65,1.74-2.13,2.75-9.78,2.68-10.75s-0.73-8.26-2.16-10.29c-11.29-29.75-63.39-29.76-122.68-29.76a12.44,12.44,0,0,0-12.45,12.44"/>
    </clipPath>
    <linearGradient id="linear-gradient-2" x1="-556.63" y1="604.43" x2="-552.13" y2="604.43" gradientTransform="matrix(0, -10.37, -10.37, 0, 6416.93, -5369.14)" xlink:href="#linear-gradient"/>
    <clipPath id="clip-path-3">
      <path class="cls-1" d="M76.23,140.94c-10,14.36-11.23,34-3.4,55.35,7.36,20.07,25.05,40.45,38,53.68a12.36,12.36,0,0,0,17.64-17.33c-15.73-16-28-32.61-32.48-44.87-5-13.53-4.81-25.12.46-32.68,3.76-5.39,10.07-8.36,17.74-8.36,5.39,0,12.62,5.06,16.31,11.06a52.72,52.72,0,0,1,12.75-20c-7.44-8.17-17.38-15.77-29.06-15.77-15.76,0-29.61,6.91-38,18.94"/>
    </clipPath>
    <linearGradient id="linear-gradient-3" x1="-515.38" y1="624.52" x2="-510.87" y2="624.52" gradientTransform="matrix(15.99, -12.94, -12.94, -15.99, 16399.42, 3529.29)" xlink:href="#linear-gradient"/>
  </defs>
  <title>Effective Altruism Lightbulb</title>
  <g>
    <g class="cls-2">
      <rect class="cls-3" x="82.92" y="389.79" width="139.14" height="55.48"/>
    </g>
    <g class="cls-4">
      <rect class="cls-5" x="82.92" y="339.87" width="137.36" height="74.8"/>
    </g>
    <path class="cls-6" d="M143,0C65.5,0,2.49,63,2.49,140.47a140.46,140.46,0,0,0,34.17,91.78h0c0.11,0.13,11,13.14,18,39C61,295,78,308.15,102.39,308.15l23.36,0c13.4,0,24.81-2.61,66.5-66.95,7.58-11.7,16.49-30.35,21.63-46.78,8.75-28,2.38-45-4.51-54.37-8-10.88-21.24-17.38-35.4-17.38-10.94,0-22,7.08-30.67,15.14a52.72,52.72,0,0,0-12.75,20,40.59,40.59,0,0,0-2.35,13.37c0,10.9,8.58,17.15,13.92,17.15,7.74,0,14.19-9.61,14.19-17.15a44.23,44.23,0,0,0-2-12.65c4.81-6.34,14-11.15,19.71-11.15,2.37,0,10.5.53,15.48,7.3s5.32,18,.85,32.35c-3.72,11.87-11.07,27.79-18.34,40-15.8,26.61-30.78,42.16-38.84,51.05a14.45,14.45,0,0,1-11.64,5.29l-19.09-.11c-13,0-20.33-5.68-23.74-18.44C70.18,233.35,56.42,217.09,55.49,216h0a115.59,115.59,0,1,1,203.07-75.53c0,28.87-10.78,59.28-28.12,79.36l-0.05.06c-4,4.45-29.17,34.45-29.17,89.05,0,15.39-32.73,30.93-105.84,30.93a12.43,12.43,0,1,0,0,24.86c113.72,0,130.7-34.95,130.7-55.79,0-47.38,21.76-71.31,22.79-72.42,0.1-.1.16-0.21,0.25-0.31s0.09-.08.13-0.13c21.41-24.77,34.18-60.51,34.18-95.61C283.42,63,220.41,0,143,0"/>
    <g class="cls-7">
      <polygon class="cls-8" points="0 174.59 112.31 83.7 208.28 202.3 95.98 293.19 0 174.59"/>
    </g>
  </g>
</svg>
