<?xml version="1.0" encoding="utf-8"?>
<!-- Generator: Adobe Illustrator 25.0.0, SVG Export Plug-In . SVG Version: 6.00 Build 0)  -->
<svg version="1.1" id="katman_1" xmlns="http://www.w3.org/2000/svg" xmlns:xlink="http://www.w3.org/1999/xlink" x="0px" y="0px"
	 viewBox="0 0 4162 2709.3" style="enable-background:new 0 0 4162 2709.3;" xml:space="preserve">
<style type="text/css">
	.st0{fill:url(#SVGID_1_);}
	.st1{fill:url(#SVGID_2_);}
	.st2{fill:url(#SVGID_3_);}
	.st3{fill:url(#SVGID_4_);}
	.st4{fill:url(#SVGID_5_);}
</style>
<linearGradient id="SVGID_1_" gradientUnits="userSpaceOnUse" x1="1082.1495" y1="2353.7332" x2="1083.1495" y2="2353.7332" gradientTransform="matrix(1538 0 0 576.75 -1663034 -1355776.875)">
	<stop  offset="0" style="stop-color:#4F4F4F"/>
	<stop  offset="1" style="stop-color:#000000"/>
</linearGradient>
<path class="st0" d="M1312,1642.7v192.3c0,32.4,699.2,86.7,1154.7,192.3c220.1-51,383.3-114,383.3-192.3v-192.3
	c0-78.2-163.2-141.2-383.3-192.3C2011.2,1556,1312,1610.3,1312,1642.7"/>
<linearGradient id="SVGID_2_" gradientUnits="userSpaceOnUse" x1="1082.1495" y1="2353.7332" x2="1083.1495" y2="2353.7332" gradientTransform="matrix(1538 0 0 576.75 -1663034 -1356545.875)">
	<stop  offset="0" style="stop-color:#4F4F4F"/>
	<stop  offset="1" style="stop-color:#000000"/>
</linearGradient>
<path class="st1" d="M1312,873.7v192.2c0,32.4,699.2,86.7,1154.7,192.3c220.1-51,383.3-114,383.3-192.3V873.7
	c0-78.2-163.2-141.2-383.3-192.3C2011.2,787,1312,841.3,1312,873.7"/>
<linearGradient id="SVGID_3_" gradientUnits="userSpaceOnUse" x1="1082.1495" y1="2353.9065" x2="1083.1495" y2="2353.9065" gradientTransform="matrix(1538 0 0 961.25 -1663034 -2261338.5)">
	<stop  offset="0" style="stop-color:#C40000"/>
	<stop  offset="1" style="stop-color:#FF0000"/>
</linearGradient>
<path class="st2" d="M1312,1258.2v576.8c0-48.1,1538-144.2,1538-384.5V873.7C2850,1114,1312,1210.1,1312,1258.2"/>
<linearGradient id="SVGID_4_" gradientUnits="userSpaceOnUse" x1="1082.1495" y1="2353.9065" x2="1083.1495" y2="2353.9065" gradientTransform="matrix(1538 0 0 961.25 -1663034 -2262107.5)">
	<stop  offset="0" style="stop-color:#C40000"/>
	<stop  offset="1" style="stop-color:#FF0000"/>
</linearGradient>
<path class="st3" d="M1312,489.2v576.8c0-48.1,1538-144.2,1538-384.5V104.7C2850,345,1312,441.1,1312,489.2"/>
<linearGradient id="SVGID_5_" gradientUnits="userSpaceOnUse" x1="1082.1495" y1="2353.9065" x2="1083.1495" y2="2353.9065" gradientTransform="matrix(1538 0 0 961.25 -1663034 -2260569.5)">
	<stop  offset="0" style="stop-color:#C40000"/>
	<stop  offset="1" style="stop-color:#FF0000"/>
</linearGradient>
<path class="st4" d="M1312,2027.2v576.8c0-48.1,1538-144.2,1538-384.5v-576.8C2850,1883,1312,1979.1,1312,2027.2"/>
</svg>
